<?xml version="1.0" standalone="no"?>
<!DOCTYPE svg PUBLIC "-//W3C//DTD SVG 20010904//EN"
 "http://www.w3.org/TR/2001/REC-SVG-20010904/DTD/svg10.dtd">
<svg version="1.0" xmlns="http://www.w3.org/2000/svg"
 width="823.000000pt" height="1280.000000pt" viewBox="0 0 823.000000 1280.000000"
 preserveAspectRatio="xMidYMid meet">
<g transform="translate(0.000000,1280.000000) scale(0.100000,-0.100000)"
fill="#0A1A5C" stroke="none">
<path d="M4046 12781 c-10 -11 -32 -71 -50 -133 -44 -151 -60 -183 -99 -198
-106 -39 -137 -71 -117 -121 16 -38 70 -75 201 -138 57 -27 115 -61 129 -76
l25 -27 -25 -20 c-22 -18 -34 -20 -91 -14 -135 12 -191 38 -344 160 -14 11
-27 17 -30 14 -3 -3 0 -60 6 -128 8 -86 8 -125 0 -133 -7 -7 -31 3 -81 36 -38
26 -74 47 -80 47 -17 0 -30 -37 -30 -85 0 -43 3 -49 65 -108 56 -52 65 -66 63
-91 -4 -38 -55 -71 -95 -61 -14 3 -54 33 -88 66 -34 32 -67 59 -73 59 -34 0
-43 -114 -16 -193 19 -55 14 -77 -19 -77 -26 0 -67 40 -114 110 -17 25 -41 54
-53 65 -21 19 -22 19 -36 0 -44 -59 12 -276 114 -445 25 -41 52 -100 59 -130
24 -103 11 -372 -19 -392 -7 -4 -52 -5 -99 -2 -102 8 -139 1 -139 -24 0 -23
28 -49 105 -97 74 -46 115 -84 115 -105 0 -20 -44 -62 -85 -83 -75 -37 -144
-29 -210 23 -48 38 -66 43 -114 30 -73 -19 -126 -109 -102 -172 5 -15 30 -54
55 -88 46 -63 56 -96 34 -118 -19 -19 -42 -15 -141 24 -53 21 -118 38 -153 41
-78 7 -86 -4 -75 -97 5 -36 6 -71 4 -77 -3 -8 -24 -13 -55 -13 -58 0 -88 -13
-88 -39 0 -31 37 -54 112 -68 40 -7 82 -20 95 -28 49 -33 38 -117 -24 -186
-53 -59 -80 -69 -175 -69 -94 0 -158 -14 -158 -35 0 -26 51 -74 98 -92 90 -34
268 -18 395 36 64 27 107 69 187 182 61 84 88 112 169 172 117 87 226 146 240
132 5 -6 13 -28 16 -50 l7 -40 -122 -84 -122 -83 -39 -82 c-30 -65 -54 -97
-118 -161 l-81 -80 0 -95 c-1 -115 -16 -238 -32 -257 -6 -8 -54 -40 -107 -71
l-96 -57 47 -3 c26 -2 63 1 83 7 59 16 52 -7 -29 -88 -42 -42 -76 -81 -76 -87
0 -5 18 -28 40 -49 22 -21 40 -45 40 -51 0 -7 -16 -22 -35 -34 -40 -24 -110
-101 -132 -145 -9 -16 -26 -71 -39 -122 -28 -114 -79 -213 -150 -291 -43 -48
-54 -67 -54 -94 0 -19 5 -39 12 -46 30 -30 206 3 249 47 16 16 79 193 143 401
l36 115 69 45 c67 43 69 45 75 95 10 82 7 135 -10 196 -9 32 -14 65 -11 72 5
15 436 276 468 284 14 4 17 -12 22 -139 3 -88 11 -163 21 -194 20 -63 69 -111
149 -144 31 -13 57 -27 57 -32 0 -11 -29 -10 -145 6 -54 8 -103 12 -107 10
-12 -7 -98 -285 -98 -315 0 -15 32 -90 70 -168 39 -78 70 -147 70 -153 0 -5
-57 -72 -128 -147 -79 -85 -167 -193 -232 -286 l-105 -150 -12 -94 c-6 -51
-16 -98 -20 -102 -5 -5 -37 -14 -72 -20 -34 -6 -61 -15 -59 -20 2 -6 53 -50
113 -99 l110 -90 35 40 c20 22 40 40 45 40 6 0 62 -77 125 -170 63 -93 118
-170 121 -170 4 0 23 20 43 45 l37 45 -7 121 c-6 102 -5 121 7 117 8 -2 64
-67 126 -144 124 -153 111 -146 218 -124 33 7 70 25 106 52 104 79 184 99 235
59 15 -12 35 -21 45 -21 22 0 74 43 96 81 20 34 31 35 100 9 29 -11 91 -23
138 -26 47 -4 88 -11 91 -15 2 -4 -2 -24 -10 -44 l-15 -35 -106 0 c-140 0
-165 -11 -203 -87 -31 -63 -118 -189 -213 -308 l-61 -77 25 -37 c104 -157 145
-326 103 -426 -21 -50 -20 -60 9 -79 23 -15 27 -15 65 4 72 37 74 35 66 -90
l-6 -110 27 -11 c16 -6 44 -13 63 -16 34 -4 38 0 113 87 43 50 83 90 89 88 7
-3 19 -28 29 -56 l18 -52 -61 -82 -61 -82 22 -40 c18 -36 19 -46 9 -78 -6 -20
-17 -39 -24 -42 -7 -3 -55 2 -105 10 -51 8 -96 11 -100 7 -8 -9 -39 -110 -39
-130 0 -7 34 -38 75 -69 76 -57 83 -69 69 -122 -4 -13 -48 -53 -110 -98 -88
-64 -104 -80 -104 -103 0 -40 21 -144 33 -158 5 -7 69 -56 143 -108 149 -107
145 -96 76 -173 -24 -27 -44 -41 -53 -37 -8 3 -56 63 -107 132 l-94 125 -34
-33 c-19 -18 -34 -38 -34 -44 0 -5 16 -34 36 -63 33 -50 34 -55 20 -75 -38
-55 -74 -90 -87 -85 -8 3 -27 45 -44 93 -17 48 -39 93 -49 101 -28 19 -119 38
-150 30 -15 -4 -37 -18 -49 -32 -34 -40 -94 -67 -131 -60 -33 6 -62 33 -130
119 l-39 49 -56 -56 -57 -56 -86 0 c-48 0 -89 4 -92 9 -3 5 7 39 24 75 l30 67
-127 135 c-144 153 -118 148 -225 45 l-57 -54 75 -148 c41 -82 74 -157 74
-167 0 -10 -49 -76 -109 -148 -102 -122 -114 -132 -204 -183 l-96 -53 15 -37
c9 -20 25 -58 36 -86 11 -27 21 -52 23 -54 2 -2 59 37 127 86 185 135 170 128
200 95 13 -15 55 -66 91 -113 l66 -86 7 -209 c6 -196 5 -210 -12 -231 -11 -11
-126 -114 -258 -228 l-238 -208 -86 7 c-48 3 -103 9 -123 12 -36 6 -38 5 -100
-72 -35 -43 -73 -89 -85 -103 l-21 -25 -204 32 c-112 18 -212 32 -221 32 -18
0 -20 -9 -42 -237 -7 -73 -10 -137 -7 -142 3 -5 28 -22 55 -37 40 -24 57 -44
98 -116 l50 -87 51 -5 c29 -3 82 -7 119 -10 l66 -5 67 74 67 75 124 0 c120 0
125 -1 134 -22 7 -18 40 -301 40 -340 0 -10 70 -9 132 1 35 6 59 18 92 49 25
23 47 42 48 42 2 0 30 -9 63 -19 71 -22 71 -22 125 -196 l40 -130 106 -89 107
-89 86 11 85 12 106 105 c114 114 117 115 205 91 60 -16 155 -62 155 -76 0 -5
-35 -38 -77 -72 -156 -127 -174 -151 -220 -291 -11 -33 -22 -49 -37 -52 -173
-39 -252 -55 -267 -55 -10 0 -100 52 -201 116 l-182 116 -199 -8 -199 -7 -23
-36 c-13 -20 -48 -79 -78 -131 l-53 -95 -75 -3 -74 -3 -35 66 c-19 36 -37 65
-40 65 -3 0 -33 -28 -67 -62 l-62 -63 31 -102 c17 -55 28 -108 25 -116 -3 -8
-80 -69 -171 -136 l-166 -123 -49 13 c-27 7 -55 10 -63 6 -8 -3 -33 -41 -56
-85 l-42 -79 -85 -39 -85 -39 -27 -70 c-15 -38 -31 -76 -36 -83 -7 -9 -59 -12
-197 -12 -176 0 -346 -14 -363 -29 -4 -4 -4 -35 -1 -69 6 -57 9 -63 33 -68
160 -33 240 -65 303 -122 44 -40 65 -74 76 -129 l8 -38 77 77 c63 62 85 92
117 162 24 51 50 92 65 102 33 22 89 14 162 -22 66 -32 64 -33 118 84 32 68
41 77 74 72 26 -3 212 -90 564 -263 273 -134 352 -169 365 -161 26 16 102 149
233 406 87 174 124 238 137 238 10 0 94 -23 187 -51 310 -92 818 -237 960
-274 l140 -36 17 22 c14 16 18 40 18 95 0 56 4 76 14 80 8 3 146 -2 307 -10
160 -9 294 -14 297 -12 2 3 -8 57 -24 120 -15 64 -25 119 -21 123 10 10 16 6
302 -200 l249 -180 261 17 c143 9 287 19 320 22 l60 6 162 -106 162 -106 303
130 c166 72 308 130 314 130 6 0 22 -16 35 -35 13 -19 29 -34 35 -33 5 2 47
44 92 94 l82 91 132 13 c73 7 142 16 153 20 18 7 26 35 58 206 40 214 42 234
27 234 -5 0 -114 -16 -242 -35 -137 -21 -235 -32 -241 -26 -5 5 -22 62 -39
127 -16 65 -35 122 -41 126 -7 4 -39 8 -72 8 -62 1 -195 16 -227 26 -22 7 -24
30 -3 38 28 10 111 18 279 24 l170 7 58 110 c32 61 56 114 55 119 -2 6 -39 22
-83 36 -49 17 -79 32 -79 41 0 11 28 14 155 14 l156 0 67 44 c37 24 67 45 67
47 0 2 -22 34 -50 72 -74 101 -70 106 60 72 41 -11 84 -20 95 -20 34 0 233
234 340 398 94 146 185 379 185 476 0 47 -37 156 -79 232 -154 275 -595 522
-946 527 -175 3 -255 -53 -273 -191 -7 -53 -9 -57 -32 -54 -43 5 -126 48 -163
86 -47 47 -67 85 -74 146 -8 68 15 88 156 135 62 20 124 47 137 59 72 61 45
243 -76 516 -23 52 -52 113 -64 135 -13 22 -31 61 -40 86 -25 66 -13 85 65
100 82 16 95 35 73 110 -19 64 -66 158 -169 334 -42 71 -80 146 -85 167 -18
64 11 110 112 179 31 21 59 48 63 59 13 41 -49 111 -216 242 -95 75 -95 76
-163 204 -134 259 -235 349 -409 370 -141 16 -203 74 -251 234 -71 237 -60
798 25 1202 25 117 22 123 -66 179 -129 81 -194 184 -260 409 -60 204 -115
299 -198 341 -35 19 -52 20 -126 15 -180 -12 -290 -25 -396 -46 -74 -15 -135
-21 -188 -18 -75 3 -80 5 -108 36 -39 44 -37 95 4 126 26 19 42 21 194 21 137
0 167 3 174 15 4 8 17 36 28 62 29 70 46 70 182 3 123 -61 155 -65 177 -25 16
30 9 137 -13 199 -26 76 -54 104 -128 131 -23 8 -26 13 -18 27 5 10 119 128
253 263 277 277 415 435 523 596 90 132 121 205 134 313 16 126 43 168 153
232 41 24 74 52 83 69 22 44 19 112 -7 145 -94 120 -505 246 -860 264 l-136 7
-124 62 c-68 34 -136 62 -151 62 -17 0 -72 -26 -135 -64 -131 -78 -193 -101
-235 -86 -19 6 -80 8 -167 4 -152 -8 -184 -3 -200 26 -27 50 49 168 130 205
l41 19 55 -28 c83 -42 112 -34 197 53 38 39 67 76 65 83 -6 17 -42 26 -114 27
-72 1 -111 24 -100 58 4 11 140 112 329 243 581 403 553 381 640 520 65 107
97 192 81 218 -33 52 -417 102 -777 102 -227 0 -243 -3 -266 -49 -23 -45 -97
-128 -106 -120 -3 4 -14 47 -24 96 -22 104 -34 130 -95 205 -41 50 -169 148
-193 148 -6 0 -18 -9 -27 -19z"/>
<path d="M1498 7953 l-38 -37 -87 28 c-49 16 -93 31 -99 33 -7 2 -35 -39 -64
-92 l-53 -97 -61 6 c-40 4 -85 18 -131 41 l-70 35 -17 -22 c-10 -13 -59 -99
-109 -192 l-92 -168 -134 7 -134 7 43 -86 c26 -53 39 -89 33 -94 -6 -5 -107
-37 -225 -72 -118 -34 -221 -66 -228 -70 -9 -4 52 -90 210 -291 l224 -284 104
-3 c156 -4 144 -13 170 130 12 68 28 129 34 136 14 14 232 59 242 50 3 -4 13
-62 21 -130 7 -68 16 -132 18 -143 2 -11 43 -49 90 -85 47 -35 85 -70 85 -78
0 -7 -13 -39 -30 -72 -16 -33 -30 -63 -30 -68 0 -5 36 -19 80 -31 45 -12 87
-24 94 -27 8 -3 24 12 40 40 14 25 30 47 35 50 5 3 53 -26 107 -64 l99 -70 55
7 c30 3 61 10 67 16 7 5 36 54 65 109 32 60 60 103 73 108 11 4 89 12 174 19
85 6 157 13 159 16 7 6 35 455 29 461 -3 3 -55 -2 -116 -12 l-110 -17 -56 23
c-31 13 -55 28 -53 35 2 6 58 60 126 120 l123 108 -6 41 c-11 68 -13 71 -85
106 -38 19 -72 41 -75 49 -2 9 -11 52 -20 95 -13 70 -13 89 0 170 8 50 15 100
15 111 0 16 -33 40 -138 103 l-138 82 -90 0 -89 0 -37 -37z"/>
</g>
</svg>
