<svg xmlns="http://www.w3.org/2000/svg" viewBox="0 0 64 64" fill="none" stroke="#041654" stroke-width="3" stroke-linecap="round" stroke-linejoin="round" role="img" aria-label="Save me stress: brain with a pulse line">
  <!-- brain outline (two lobes) -->
  <path d="M30 14 C24 12 18 16 18 22 C13 23 12 30 16 33 C12 37 15 44 21 44 C22 49 28 51 32 48"/>
  <path d="M30 14 L30 48"/>
  <path d="M34 14 C40 12 46 16 46 22 C51 23 52 30 48 33 C52 37 49 44 43 44 C42 49 36 51 34 48"/>
  <path d="M34 14 L34 48"/>
  <!-- pulse line beneath -->
  <path d="M14 56 L24 56 L28 50 L34 60 L38 56 L50 56"/>
</svg>
